<?xml version="1.0" standalone="no"?>
<!DOCTYPE svg PUBLIC "-//W3C//DTD SVG 20010904//EN"
 "http://www.w3.org/TR/2001/REC-SVG-20010904/DTD/svg10.dtd">
<svg version="1.0" xmlns="http://www.w3.org/2000/svg"
 width="350.000000pt" height="350.000000pt" viewBox="0 0 350.000000 350.000000"
 preserveAspectRatio="xMidYMid meet">
<metadata>
Created by potrace 1.11, written by Peter Selinger 2001-2013
</metadata>
<g transform="translate(0.000000,350.000000) scale(0.100000,-0.100000)"
fill="#000000" stroke="none">
<path d="M1660 3264 c-25 -14 -153 -82 -285 -151 -132 -69 -323 -170 -425
-223 -102 -53 -300 -157 -440 -230 -140 -73 -265 -142 -277 -153 -21 -19 -23
-30 -23 -119 0 -157 -207 -138 1525 -138 l1486 0 24 26 c22 24 25 36 25 106 0
101 -13 125 -87 163 -32 16 -128 66 -213 110 -85 45 -213 112 -285 150 -71 37
-220 115 -330 173 -515 270 -599 312 -623 312 -15 0 -47 -12 -72 -26z m168
-413 c52 -27 82 -62 102 -122 21 -60 18 -97 -14 -159 -42 -85 -150 -130 -241
-100 -62 20 -121 82 -135 141 -24 97 8 179 89 230 56 36 140 40 199 10z"/>
<path d="M507 2092 c-15 -17 -17 -67 -17 -520 l0 -502 210 0 211 0 -3 501 -3
501 -24 19 c-21 17 -41 19 -191 19 -149 0 -169 -2 -183 -18z"/>
<path d="M1196 2085 c-14 -21 -16 -80 -16 -520 l0 -495 210 0 211 0 -3 506
c-3 487 -4 506 -22 520 -15 11 -59 14 -192 14 -171 0 -172 0 -188 -25z"/>
<path d="M1890 2090 c-19 -19 -20 -33 -20 -361 l0 -341 23 8 c12 4 106 9 210
11 l187 4 0 333 c0 310 -1 334 -18 349 -16 14 -45 17 -190 17 -159 0 -174 -2
-192 -20z"/>
<path d="M2587 2092 c-15 -17 -17 -56 -17 -350 l0 -332 210 0 210 0 0 333 c0
311 -1 335 -18 350 -16 15 -45 17 -194 17 -157 0 -177 -2 -191 -18z"/>
<path d="M1942 1267 c-18 -5 -50 -27 -72 -48 -66 -64 -70 -91 -70 -490 0 -215
4 -368 11 -399 13 -60 54 -112 111 -141 37 -19 59 -19 696 -17 l657 3 36 24
c19 14 46 41 60 60 l24 36 3 410 c1 226 0 420 -3 433 -9 36 -76 103 -123 123
-41 18 -80 19 -670 18 -409 -1 -638 -5 -660 -12z m1159 -277 c16 -9 19 -22 19
-90 0 -102 -9 -110 -132 -110 -47 0 -98 4 -112 10 -25 9 -26 12 -26 94 0 70 3
87 18 95 22 14 208 14 233 1z m-831 -360 c24 -24 26 -57 4 -88 -13 -19 -24
-22 -82 -22 -80 1 -102 14 -102 60 0 53 23 70 97 70 50 0 67 -4 83 -20z m272
7 c26 -20 33 -63 14 -92 -15 -23 -23 -25 -91 -25 -65 0 -76 3 -89 22 -21 30
-20 50 5 82 18 23 27 26 82 26 34 0 69 -6 79 -13z m291 -18 c20 -28 17 -57 -9
-84 -22 -22 -141 -21 -166 2 -24 22 -23 62 4 90 20 21 30 23 87 21 56 -3 66
-6 84 -29z m269 14 c22 -20 24 -76 2 -97 -22 -23 -141 -22 -166 1 -22 20 -23
70 -1 95 22 25 138 26 165 1z"/>
<path d="M296 908 c-11 -16 -16 -46 -16 -99 l0 -76 -52 -5 c-81 -8 -88 -22
-88 -183 0 -115 2 -134 18 -148 17 -16 84 -17 764 -17 l745 0 -1 275 -1 275
-677 0 -677 0 -15 -22z"/>
</g>
</svg>
